<svg xmlns="http://www.w3.org/2000/svg" width="50" height="50" viewBox="0 0 50 50">
	<defs>
	<style>
		.cdf-c1, cdf-c2{
			fill:#1d7ce6;
		}
		.cdf-c1{
			fill-rule:evenodd;
		}
		.cdf-c2{
			opacity:0.1;
		}
	</style>
	</defs>
  <path class="cdf-c1" d="M685,369a25,25,0,1,1,25-25A25,25,0,0,1,685,369Zm0-48a23,23,0,1,0,23,23A23,23,0,0,0,685,321Zm7.73,30.688a1,1,0,0,1-1.414,0L685,345.378l-6.316,6.31a1,1,0,1,1-1.414-1.416l6.314-6.308-6.273-6.268a1,1,0,0,1,1.414-1.416L685,342.549l6.275-6.269a1,1,0,0,1,1.414,1.416l-6.273,6.268,6.314,6.308A1,1,0,0,1,692.73,351.688Z" transform="translate(-660 -319)"/>
  <circle class="cdf-c2" cx="25" cy="25" r="19"/>
</svg>
