<svg xmlns="http://www.w3.org/2000/svg" width="14" height="14" viewBox="0 0 14 14">
  <defs>
    <style>
      .cls-1 {
        fill: #fff;
        fill-rule: evenodd;
      }
    </style>
  </defs>
  <path id="Rounded_Rectangle_900" data-name="Rounded Rectangle 900" class="cls-1" d="M706.844,221.813s0,0.01-.006.014-0.017,0-.024.01a0.492,0.492,0,0,1-.313.13s-0.01,0-.015,0a0.5,0.5,0,0,1-.358-0.145c-0.006-.006,0-0.015-0.009-0.021l-1.977-1.978a0.492,0.492,0,0,1,.7-0.7l1.64,1.641,6.643-6.643a0.5,0.5,0,0,1,.7.7ZM707,214a6,6,0,1,0,6,6l0.908-.908A6.8,6.8,0,0,1,714,220a7.06,7.06,0,1,1-4.485-6.514l-0.795.795A5.938,5.938,0,0,0,707,214Z" transform="translate(-700 -213)"/>
</svg>
