<svg xmlns="http://www.w3.org/2000/svg" width="11" height="11" viewBox="0 0 11 11">
  <defs>
    <style>
      .cls-1 {
        fill: #fff;
        fill-rule: evenodd;
      }
    </style>
  </defs>
  <path id="Rounded_Rectangle_5_copy" data-name="Rounded Rectangle 5 copy" class="cls-1" d="M1025.89,520.991l-0.37-.364-2.18-2.184-0.37-.364a0.515,0.515,0,1,1,.73-0.728l0.37,0.364,2.27-2.277a1.547,1.547,0,0,1,2.19,2.185l-2.28,2.276,0.37,0.364A0.515,0.515,0,1,1,1025.89,520.991Zm-4.1,3.369a1.534,1.534,0,0,1-1.75.3l-1.16,1.159a0.515,0.515,0,0,1-.73-0.728l1.16-1.159a1.536,1.536,0,0,1,.3-1.753l3-3,2.19,2.184Z" transform="translate(-1018 -515)"/>
</svg>
