<svg xmlns="http://www.w3.org/2000/svg" width="15" height="15" viewBox="0 0 15 15">
  <defs>
    <style>
      .cls-1 {
        fill: #333;
        fill-rule: evenodd;
      }
    </style>
  </defs>
  <path class="cls-1" d="M597.5,47a2.5,2.5,0,0,1-2.45-2H591V44h4.05A2.5,2.5,0,1,1,597.5,47Zm0-4a1.5,1.5,0,1,0,1.5,1.5A1.5,1.5,0,0,0,597.5,43ZM588,46.949V51h-1V46.949A2.5,2.5,0,1,1,588,46.949ZM587.5,43a1.5,1.5,0,1,0,1.5,1.5A1.5,1.5,0,0,0,587.5,43Zm0,9a2.5,2.5,0,0,1,2.449,2H594v1h-4.051A2.5,2.5,0,1,1,587.5,52Zm0,4a1.5,1.5,0,1,0-1.5-1.5A1.5,1.5,0,0,0,587.5,56Zm9.5-3.95V48h1v4.05A2.5,2.5,0,1,1,597,52.05ZM597.5,56a1.5,1.5,0,1,0-1.5-1.5A1.5,1.5,0,0,0,597.5,56Z" transform="translate(-585 -42)"/>
</svg>
