<svg xmlns="http://www.w3.org/2000/svg" width="24" height="24" viewBox="0 0 24 24">
  <defs>
    <style>
      .cls-1 {
        fill: #333;
        fill-rule: evenodd;
      }
    </style>
  </defs>
  <path class="cls-1" d="M34,278H26a4.985,4.985,0,0,1-4.487-2.832l1.595-1.412A2.992,2.992,0,0,0,26,276h8a3,3,0,0,0,3-3v-9H23v0.011l-1.5-1.325A1.984,1.984,0,0,1,23,262h2v-3a5,5,0,0,1,10,0v3h2a2,2,0,0,1,2,2v9A5,5,0,0,1,34,278Zm-1-19a3,3,0,1,0-6,0v3h6v-3Zm-10.142,9h5.419A1.994,1.994,0,1,1,31,270.722V272a1,1,0,0,1-2,0v-1.278A2.025,2.025,0,0,1,28.273,270H22.859A4,4,0,1,1,22.858,268ZM19,267a2,2,0,1,0,2,2A2,2,0,0,0,19,267Z" transform="translate(-15 -254)"/>
</svg>
