<svg xmlns="http://www.w3.org/2000/svg" width="16.125" height="10" viewBox="0 0 16.125 10">
  <defs>
    <style>
      .cls-1 {
        fill: #333;
        fill-rule: evenodd;
      }
    </style>
  </defs>
  <path class="cls-1" d="M711.053,272c-0.088.178-.2,0.342-0.3,0.513l0.009,0.02c-0.043.074-.1,0.141-0.144,0.214-0.064.1-.116,0.218-0.185,0.319,0-.009-0.009-0.017-0.013-0.026a8.939,8.939,0,0,1-14.848,0c0,0.009-.01.017-0.013,0.026-0.069-.1-0.121-0.214-0.185-0.319-0.045-.073-0.1-0.14-0.144-0.214l0.009-.02c-0.1-.171-0.208-0.335-0.3-0.513,0.088-.178.2-0.342,0.3-0.513l-0.009-.02c0.043-.074.1-0.141,0.144-0.214,0.064-.1.116-0.218,0.185-0.319,0,0.009.009,0.017,0.013,0.026a8.939,8.939,0,0,1,14.848,0c0-.009.01-0.017,0.013-0.026,0.069,0.1.121,0.214,0.185,0.319,0.045,0.073.1,0.14,0.144,0.214l-0.009.02C710.855,271.658,710.965,271.822,711.053,272ZM700.5,268.422A2.911,2.911,0,0,0,700,270a3,3,0,0,0,6,0,2.911,2.911,0,0,0-.5-1.578A7.64,7.64,0,0,0,700.5,268.422Zm6.359,0.591A3.827,3.827,0,0,1,707,270a4,4,0,0,1-8,0,3.827,3.827,0,0,1,.145-0.987A8.084,8.084,0,0,0,696.1,272a7.946,7.946,0,0,0,13.794,0A8.084,8.084,0,0,0,706.855,269.013Z" transform="translate(-694.938 -267)"/>
</svg>
