<svg xmlns="http://www.w3.org/2000/svg" width="15" height="15" viewBox="0 0 15 15">
  <defs>
    <style>
      .cls-1 {
        fill: #333;
        fill-rule: evenodd;
      }
    </style>
  </defs>
  <path class="cls-1" d="M35.5,108H33.95a2.5,2.5,0,0,1-4.9,0H21.5a0.5,0.5,0,0,1,0-1h7.55a2.5,2.5,0,0,1,4.9,0H35.5A0.5,0.5,0,0,1,35.5,108Zm-4-2a1.5,1.5,0,1,0,1.5,1.5A1.5,1.5,0,0,0,31.5,106Zm4-3H27.95A2.5,2.5,0,0,1,23,102.5V103H21.5a0.5,0.5,0,0,1,0-1H23v0.5a2.5,2.5,0,0,1,4.95-.5H35.5A0.5,0.5,0,0,1,35.5,103Zm-10-2a1.5,1.5,0,1,0,1.5,1.5A1.5,1.5,0,0,0,25.5,101Zm-4,11h1.55a2.5,2.5,0,0,1,4.9,0H35.5a0.5,0.5,0,0,1,0,1H27.95a2.5,2.5,0,0,1-4.9,0H21.5A0.5,0.5,0,0,1,21.5,112Zm4,2a1.5,1.5,0,1,0-1.5-1.5A1.5,1.5,0,0,0,25.5,114Z" transform="translate(-21 -100)"/>
</svg>
