<svg xmlns="http://www.w3.org/2000/svg" width="24" height="24" viewBox="0 0 24 24">
  <defs>
    <style>
      .cls-1 {
        fill: #333;
        fill-rule: evenodd;
      }
    </style>
  </defs>
  <path id="Ellipse_12_copy_2" data-name="Ellipse 12 copy 2" class="cls-1" d="M18,208H30.142a3.981,3.981,0,0,0,7.717,0H40a1,1,0,0,0,0-2H37.859a3.982,3.982,0,0,0-7.717,0H18A1,1,0,0,0,18,208Zm16-3a2,2,0,1,1-2,2A2,2,0,0,1,34,205Zm-16-5h2.141a3.981,3.981,0,0,0,7.717,0H40a1,1,0,0,0,0-2H27.859a3.981,3.981,0,0,0-7.717,0H18A1,1,0,0,0,18,200Zm6-3a2,2,0,1,1-2,2A2,2,0,0,1,24,197Zm16,17H27.859a3.982,3.982,0,0,0-7.717,0H18a1,1,0,0,0,0,2h2.141a3.982,3.982,0,0,0,7.717,0H40A1,1,0,0,0,40,214Zm-16,3a2,2,0,1,1,2-2A2,2,0,0,1,24,217Z" transform="translate(-17 -195)"/>
</svg>
