<svg xmlns="http://www.w3.org/2000/svg" width="24" height="24" viewBox="0 0 24 24">
  <defs>
    <style>
      .cls-1 {
        fill: #333;
        fill-rule: evenodd;
      }
    </style>
  </defs>
  <path id="Ellipse_25_copy_32" data-name="Ellipse 25 copy 32" class="cls-1" d="M29,160a12,12,0,1,1,12-12A12,12,0,0,1,29,160Zm10-12a9.952,9.952,0,0,0-2.376-6.463A6.826,6.826,0,0,0,34,141a6.938,6.938,0,0,0-4.422,1.614,5.949,5.949,0,0,1,0,10.771A6.933,6.933,0,0,0,34,155a6.792,6.792,0,0,0,2.639-.554A9.955,9.955,0,0,0,39,148Zm-12,0a6.96,6.96,0,0,0,1.142,3.815,3.975,3.975,0,0,0,0-7.63A6.957,6.957,0,0,0,27,148Zm-8,0a9.982,9.982,0,0,0,14.4,8.969,8.989,8.989,0,0,1,0-17.939A9.983,9.983,0,0,0,19,148Z" transform="translate(-17 -136)"/>
</svg>
