<svg xmlns="http://www.w3.org/2000/svg" width="15" height="15" viewBox="0 0 15 15">
  <defs>
    <style>
      .cls-1 {
        fill: #333;
        fill-rule: evenodd;
      }
    </style>
  </defs>
  <path class="cls-1" d="M28.5,37A7.5,7.5,0,1,1,36,29.5,7.5,7.5,0,0,1,28.5,37Zm0-14a6.5,6.5,0,1,0,3.52,11.952,5.47,5.47,0,0,1,0-10.9A6.456,6.456,0,0,0,28.5,23Zm0.246,4.025a4.477,4.477,0,0,0,0,4.95A2.486,2.486,0,0,0,28.746,27.025Zm4.488-1.953A4.062,4.062,0,0,0,32.5,25a4.466,4.466,0,0,0-3,1.168,3.47,3.47,0,0,1,0,6.663A4.466,4.466,0,0,0,32.5,34a4.062,4.062,0,0,0,.734-0.071A6.437,6.437,0,0,0,33.234,25.071Z" transform="translate(-21 -22)"/>
</svg>
