<svg xmlns="http://www.w3.org/2000/svg" width="11" height="11" viewBox="0 0 11 11">
  <defs>
    <style>
      .sswcls-1 {
        fill: #333;
        fill-rule: evenodd;
      }
    </style>
  </defs>
  <path id="Rounded_Rectangle_944_copy" data-name="Rounded Rectangle 944 copy" class="sswcls-1" d="M606,942h-7a2,2,0,0,1-2-2v-5a2,2,0,0,1,2-2h1v1h-1a1,1,0,0,0-1,1v5a1,1,0,0,0,1,1h7a1,1,0,0,0,1-1v-5a1,1,0,0,0-1-1h-1v-1h1a2,2,0,0,1,2,2v5A2,2,0,0,1,606,942Zm-1.119-5.155-2,2.006a0.455,0.455,0,0,1-.072.03,0.486,0.486,0,0,1-.269.11c-0.006,0-.011,0-0.017,0s-0.017,0-.027,0-0.017,0-.027,0-0.011,0-.017,0a0.486,0.486,0,0,1-.269-0.11,0.455,0.455,0,0,1-.072-0.03l-2-2.006a0.492,0.492,0,0,1,0-.7,0.5,0.5,0,0,1,.707,0l1.174,1.18V931.5a0.5,0.5,0,0,1,1,0v5.825l1.174-1.18a0.5,0.5,0,0,1,.707,0A0.492,0.492,0,0,1,604.881,936.845Z" transform="translate(-597 -931)"/>
</svg>
