<svg xmlns="http://www.w3.org/2000/svg" width="8" height="8" viewBox="0 0 8 8">
  <defs>
    <style>
      .cls-1 {
        fill: #8eb3bc;
        fill-rule: evenodd;
      }
    </style>
  </defs>
  <path id="_copy_5" data-name="* copy 5" class="cls-1" d="M710.021,299.657a6.664,6.664,0,0,1-.759-0.75,1.661,1.661,0,0,0-1.219-.625,1,1,0,0,0-.747.306,1.034,1.034,0,0,0,.067,1.513,1.335,1.335,0,0,0,.935.331q0.217,0,.813-0.038,0.255-.012.534-0.012l1.068,0.037a6.31,6.31,0,0,1-.668.638,8.518,8.518,0,0,1-.837.518,2.465,2.465,0,0,0-.831.675,1.3,1.3,0,0,0-.225.745,0.933,0.933,0,0,0,.291.687,0.965,0.965,0,0,0,.7.288,1.03,1.03,0,0,0,.777-0.351,2.428,2.428,0,0,0,.461-1.287,4.764,4.764,0,0,1,.194-0.863,5.635,5.635,0,0,1,.437-0.85,5.228,5.228,0,0,1,.413.819,4.785,4.785,0,0,1,.17.894,2.427,2.427,0,0,0,.479,1.306,1.05,1.05,0,0,0,.783.369,0.938,0.938,0,0,0,.7-0.306,1.056,1.056,0,0,0,.291-0.757,1.087,1.087,0,0,0-.194-0.662,2.522,2.522,0,0,0-.856-0.656,3.739,3.739,0,0,1-1.511-1.207q0.765-.037,1.129-0.037,0.279,0,.522.012c0.34,0.017.578,0.025,0.716,0.025a1.378,1.378,0,0,0,.965-0.337,1.038,1.038,0,0,0,.37-0.788,0.969,0.969,0,0,0-.3-0.712,1.012,1.012,0,0,0-.74-0.3,1.729,1.729,0,0,0-1.214.7,5.521,5.521,0,0,1-.716.687,4.407,4.407,0,0,1-.8.413,5.585,5.585,0,0,1,.134-0.931,5.05,5.05,0,0,1,.394-0.919,2.325,2.325,0,0,0,.31-1.025,1.226,1.226,0,0,0-.316-0.875,0.982,0.982,0,0,0-.74-0.338,0.949,0.949,0,0,0-.722.363,1.222,1.222,0,0,0-.322.837,2.551,2.551,0,0,0,.322,1.019,6.406,6.406,0,0,1,.406.963,4.629,4.629,0,0,1,.122.906,4.375,4.375,0,0,1-.789-0.425h0Z" transform="translate(-707 -296)"/>
</svg>
