<svg xmlns="http://www.w3.org/2000/svg" width="15" height="15" viewBox="0 0 15 15">
  <defs>
    <style>
      .cls-1 {
        fill: #333;
        fill-rule: evenodd;
      }
    </style>
  </defs>
  <path id="Ellipse_298_copy" data-name="Ellipse 298 copy" class="cls-1" d="M256,57h-7a4,4,0,0,1-4-4V46a4,4,0,0,1,4-4h7a4,4,0,0,1,4,4v7A4,4,0,0,1,256,57Zm-4-1.5a1.5,1.5,0,0,0-3,0,1.461,1.461,0,0,0,.1.5h2.8A1.461,1.461,0,0,0,252,55.5ZM246,53a2.99,2.99,0,0,0,2.033,2.826A2.405,2.405,0,0,1,250,53.05V49.944A2.5,2.5,0,0,1,248.05,48H246v5Zm4-10h-1a3,3,0,0,0-3,3v1h2.05A2.5,2.5,0,0,1,250,45.054V43Zm-1,4.5a1.5,1.5,0,1,0,1.5-1.5A1.5,1.5,0,0,0,249,47.5Zm7-4.5h-5v2.054A2.5,2.5,0,0,1,252.95,47h3.1a2.5,2.5,0,0,1,2.45-2,2.464,2.464,0,0,1,.327.033A2.991,2.991,0,0,0,256,43Zm3,3.1a1.477,1.477,0,0,0-.5-0.1,1.5,1.5,0,0,0,0,3,1.477,1.477,0,0,0,.5-0.1V46.1Zm0,3.849A2.5,2.5,0,0,1,256.05,48h-3.1A2.5,2.5,0,0,1,251,49.944V53.05a2.5,2.5,0,0,1,2,2.45,2.568,2.568,0,0,1-.05.5H256a3,3,0,0,0,3-3V49.95Z" transform="translate(-245 -42)"/>
</svg>
