<svg xmlns="http://www.w3.org/2000/svg" width="15" height="15" viewBox="0 0 15 15">
  <defs>
    <style>
      .cls-1 {
        fill: #333;
        fill-rule: evenodd;
      }
    </style>
  </defs>
  <path id="Rounded_Rectangle_924" data-name="Rounded Rectangle 924" class="cls-1" d="M35.828,183.834l-2.981,3a0.492,0.492,0,0,1-.36.139,0.486,0.486,0,0,1-.358-0.139l-2.989-3a0.486,0.486,0,0,1,0-.691,0.5,0.5,0,0,1,.7,0L32,185.312V181a2,2,0,0,0-2-2H24a2,2,0,0,0-2,2v9a2,2,0,0,0,2,2h6a2,2,0,0,0,2-2h1a3,3,0,0,1-3,3H24a3,3,0,0,1-3-3v-9a3,3,0,0,1,3-3h6a3,3,0,0,1,3,3v4.28l2.126-2.137a0.5,0.5,0,0,1,.7,0A0.483,0.483,0,0,1,35.828,183.834Z" transform="translate(-21 -178)"/>
</svg>
