<svg xmlns="http://www.w3.org/2000/svg" width="10" height="10" viewBox="0 0 10 10">
  <defs>
    <style>
      .cls-1 {
        fill: #cdcdcd;
        fill-rule: evenodd;
      }
    </style>
  </defs>
  <path id="Ellipse_307_copy" data-name="Ellipse 307 copy" class="cls-1" d="M316.9,322.005a5.019,5.019,0,0,1,.1,1,4.669,4.669,0,0,1-.084.834c-0.019.113-.041,0.223-0.067,0.333s-0.067.224-.1,0.335a4.927,4.927,0,0,1-.353.839h0a4.979,4.979,0,0,1-2.89,2.4c-0.111.037-.221,0.075-0.335,0.1s-0.22.048-.333,0.067A4.669,4.669,0,0,1,312,328a5,5,0,0,1-.994-0.1h0a4.966,4.966,0,0,1-1.6-.644h0a5.019,5.019,0,0,1-.8-0.6l0,0a4.975,4.975,0,0,1-1.386-2.273h0a4.864,4.864,0,0,1-.137-0.593A4.3,4.3,0,0,1,307,323h0a4.32,4.32,0,0,1,.082-0.81,4.978,4.978,0,0,1,4.108-4.108A4.32,4.32,0,0,1,312,318h0a4.3,4.3,0,0,1,.783.079,4.961,4.961,0,0,1,2.866,1.523,0.015,0.015,0,0,0,0,0,4.979,4.979,0,0,1,1.247,2.4h0Zm-8.247,3.176,5.528-5.528a3.966,3.966,0,0,0-1.643-.6l-4.484,4.483A3.966,3.966,0,0,0,308.653,325.181Zm6.869-4.04-5.381,5.381a3.963,3.963,0,0,0,1.773.469l4.077-4.077A3.96,3.96,0,0,0,315.522,321.141Z" transform="translate(-307 -318)"/>
</svg>
